<svg width="60" height="51" viewBox="0 0 60 51" fill="none" xmlns="http://www.w3.org/2000/svg"><path d="M17.3372 29.4769L19.8772 20.9042C20.0861 20.1991 20.734 19.7153 21.4694 19.7153H38.1941C38.9088 19.7153 39.5434 20.1727 39.7695 20.8508L42.6448 29.4769" stroke="#FFE14B" stroke-width="2.49091" stroke-linecap="round"/><path d="M17.6986 49H2.57234C2.00824 49 1.60834 48.4495 1.7827 47.913L5.75655 35.6858C5.9789 35.0016 6.61647 34.5385 7.33584 34.5385H24.0845C24.8039 34.5385 25.4415 35.0016 25.6638 35.6858L29.6377 47.913C29.812 48.4495 29.4121 49 28.848 49H23.4833" stroke="#FFE14B" stroke-width="2.49091" stroke-linecap="round"/><path d="M32.8833 39.9615L34.3125 35.6739C34.5385 34.9958 35.1731 34.5385 35.8879 34.5385H52.6461C53.3655 34.5385 54.003 35.0016 54.2254 35.6858L58.1992 47.913C58.3736 48.4495 57.9737 49 57.4096 49H35.0525" stroke="#FFE14B" stroke-width="2.49091" stroke-linecap="round"/><path d="M14.4448 8.14615L19.1448 12.8461" stroke="#FFE14B" stroke-width="2.49091" stroke-linecap="round"/><path d="M29.9907 8.50768V2" stroke="#FFE14B" stroke-width="2.49091" stroke-linecap="round"/><path d="M40.4756 12.8461L45.1756 8.14615" stroke="#FFE14B" stroke-width="2.49091" stroke-linecap="round"/></svg>