<svg width="53" height="50" viewBox="0 0 53 50" fill="none" xmlns="http://www.w3.org/2000/svg"><path d="M50.5726 9.31905H40.2179C40.6346 9.01799 40.9931 8.67726 41.2737 8.28117C42.2872 6.85147 42.2882 4.96193 41.2758 2.50429C40.5202 0.669378 39.2655 0.145472 38.3453 0.0287722C34.3559 -0.477195 28.7035 5.82023 26.3685 8.66658C24.0269 5.82061 18.3573 -0.47465 14.3938 0.0287722C13.4736 0.145472 12.219 0.669378 11.4633 2.50429C10.4509 4.96193 10.452 6.85147 11.4654 8.28117C11.746 8.67726 12.1045 9.01799 12.5212 9.31905H2.42744C1.08898 9.31905 0 10.3639 0 11.6481V18.1773C0 19.4615 1.08898 20.5063 2.42744 20.5063H4.03814V48.983C4.03814 49.5446 4.51225 50 5.09814 50H21.9132H31.0878H47.9008C48.4867 50 48.9608 49.5446 48.9608 48.983V20.5063H50.5726C51.911 20.5063 53 19.4615 53 18.1773V11.6481C53 10.3639 51.911 9.31905 50.5726 9.31905ZM37.8484 2.03203C37.924 2.03203 37.9964 2.036 38.0668 2.04494C38.2811 2.07226 38.8484 2.14426 39.3049 3.25216C40.0388 5.03593 40.1102 6.30671 39.5212 7.13751C38.4747 8.61426 35.1796 9.09701 31.0879 9.25002C31.0879 9.25002 31.0879 9.25002 31.0878 9.25002H28.6048C31.5677 5.79807 35.6497 2.03203 37.8484 2.03203ZM13.4343 3.25216C13.8908 2.14426 14.458 2.07225 14.6723 2.04494C14.7468 2.03551 14.8234 2.03104 14.9031 2.03104C17.193 2.03104 21.2855 5.92446 24.1345 9.25002H21.9132C21.8989 9.25002 21.887 9.25728 21.8727 9.25784C17.6788 9.11389 14.2832 8.64076 13.2179 7.13751C12.6289 6.30671 12.7003 5.03593 13.4343 3.25216ZM2.12 18.1773V11.6481C2.12 11.4882 2.26078 11.3531 2.42744 11.3531H20.8532V18.4723H5.09814H2.42744C2.26078 18.4723 2.12 18.3372 2.12 18.1773ZM6.15814 20.5063H20.8532V47.966H6.15814V20.5063ZM22.9732 47.966V11.3531H30.0278V47.966H22.9732ZM46.8408 47.966H32.1478V20.5063H46.8408V47.966ZM50.88 18.1773C50.88 18.3372 50.7392 18.4723 50.5726 18.4723H47.9008H32.1478V11.3531H50.5726C50.7392 11.3531 50.88 11.4882 50.88 11.6481V18.1773Z" fill="#FFE14B"/></svg>