<svg width="58" height="58" viewBox="0 0 58 58" fill="none" xmlns="http://www.w3.org/2000/svg"><path d="M28.7948 0.686442C34.284 0.628678 39.8308 2.16758 44.7023 5.40757C47.6994 7.40119 50.2018 9.88135 52.1658 12.6777C58.0556 21.0706 59.0998 32.3295 54.1247 41.9147C47.4943 54.6932 32.2748 60.4393 18.8519 55.2331C5.429 50.0232 -1.92711 35.5125 1.80316 21.6031C1.97645 20.8284 2.75924 20.3537 3.52721 20.5589C4.29519 20.767 4.73805 21.569 4.50329 22.3296C1.13886 34.8763 7.7507 47.917 19.8657 52.6189C31.9771 57.3208 45.654 52.1597 51.6408 40.6268C57.6231 29.0947 53.9706 14.9313 43.1545 7.7337C32.8369 0.871585 19.1985 2.47196 10.7397 11.2936H14.8854C15.6696 11.2781 16.3088 11.9068 16.3088 12.6903C16.3088 13.4739 15.6696 14.1056 14.8854 14.0907H7.25304C6.4821 14.0907 5.85706 13.462 5.85706 12.6903V5.0595C5.8415 4.27006 6.48506 3.62428 7.27599 3.63761C8.04693 3.64946 8.66901 4.28561 8.65272 5.0595V9.4222C14.0456 3.76869 21.3661 0.763461 28.7948 0.686442Z" fill="#FFE14B"/><path d="M29.065 14.8736C36.8017 14.8736 43.0388 21.1054 43.0388 28.8363C43.0388 36.5626 36.8017 42.796 29.065 42.796C21.3312 42.796 15.0941 36.5626 15.0941 28.8363C15.0941 21.1054 21.3312 14.8736 29.065 14.8736ZM29.065 12.0727C19.8197 12.0727 12.2939 19.5939 12.2939 28.8355C12.2939 38.0741 19.8197 45.5953 29.065 45.5953C38.3147 45.5953 45.8389 38.0741 45.8389 28.8355C45.8397 19.5947 38.3147 12.0727 29.065 12.0727Z" fill="#FFE14B"/><path d="M29.7361 18.9468C28.9681 18.9587 28.352 19.5904 28.3594 20.362V22.3949C28.1787 22.4179 27.9965 22.4416 27.8195 22.4756C26.211 22.7948 24.9727 23.7524 24.4291 25.0017C23.8856 26.251 24.0937 27.787 25.0453 28.8512C25.9984 29.9146 27.5647 30.4553 29.4658 30.3442C30.7544 30.2671 31.2824 30.6485 31.4875 30.9226C31.6956 31.1958 31.7075 31.4765 31.5105 31.8135C31.3372 32.1097 31.004 32.5229 30.1753 32.731C29.3466 32.9391 27.9002 32.9243 25.577 31.9593C24.8594 31.6513 24.0263 31.9868 23.73 32.711C23.4294 33.4338 23.7804 34.2588 24.5054 34.5476C25.971 35.1527 27.2433 35.4771 28.3586 35.5881V37.3048C28.3468 38.0883 28.9763 38.7326 29.759 38.7326C30.5418 38.7326 31.175 38.0883 31.1595 37.3048V35.3534C32.5666 34.9135 33.4782 34.0033 33.9322 33.2242C34.6468 31.9979 34.6031 30.4005 33.7167 29.2318C32.8332 28.0617 31.2328 27.4337 29.2962 27.5463C28.0002 27.627 27.3914 27.2649 27.1367 26.979C26.8849 26.6976 26.8545 26.4391 26.9937 26.1148C27.1367 25.7904 27.4988 25.3898 28.3668 25.2194C29.2347 25.0469 30.6159 25.1543 32.5066 26.0185C33.2079 26.3392 34.041 26.0304 34.361 25.3238C34.6853 24.6218 34.3728 23.7886 33.6708 23.4687C32.7843 23.0636 31.9467 22.7778 31.1595 22.5963V20.3591C31.1713 19.5711 30.5278 18.9298 29.7361 18.9468Z" fill="#FFE14B"/></svg>