<svg width="46" height="52" viewBox="0 0 46 52" fill="none" xmlns="http://www.w3.org/2000/svg"><path d="M2.01221 28.6412L15.7875 13.2809C16.4751 12.5141 17.6877 12.5518 18.3264 13.3597L24.9928 21.792C25.6431 22.6145 26.8834 22.636 27.5618 21.8365L44.5429 1.82153M44.5429 1.82153H32.1953M44.5429 1.82153V18.1237" stroke="#FFE14B" stroke-width="2.49091" stroke-linecap="round"/><mask id="path-2-inside-1" fill="white"><rect x="1.09741" y="37.0552" width="7.31711" height="14.7245" rx="1.66061"/></mask><rect x="1.09741" y="37.0552" width="7.31711" height="14.7245" rx="1.66061" stroke="#FFE14B" stroke-width="4.98182" mask="url(#path-2-inside-1)"/><mask id="path-3-inside-2" fill="white"><rect x="12.9878" y="30.7447" width="7.31711" height="21.035" rx="1.66061"/></mask><rect x="12.9878" y="30.7447" width="7.31711" height="21.035" rx="1.66061" stroke="#FFE14B" stroke-width="4.98182" mask="url(#path-3-inside-2)"/><mask id="path-4-inside-3" fill="white"><rect x="25.7926" y="33.8999" width="7.31711" height="17.8798" rx="1.66061"/></mask><rect x="25.7926" y="33.8999" width="7.31711" height="17.8798" rx="1.66061" stroke="#FFE14B" stroke-width="4.98182" mask="url(#path-4-inside-3)"/><mask id="path-5-inside-4" fill="white"><rect x="37.6831" y="24.4341" width="7.31711" height="27.3455" rx="1.66061"/></mask><rect x="37.6831" y="24.4341" width="7.31711" height="27.3455" rx="1.66061" stroke="#FFE14B" stroke-width="4.98182" mask="url(#path-5-inside-4)"/></svg>