<svg viewBox="0 0 40 40" fill="none" xmlns="http://www.w3.org/2000/svg"><path fill-rule="evenodd" clip-rule="evenodd" d="M20 33.0137C27.732 33.0137 34 26.9665 34 19.5068C34 12.0472 27.732 6 20 6C12.268 6 6 12.0472 6 19.5068C6 26.9665 12.268 33.0137 20 33.0137Z" fill="#E1E1E2"/><path fill-rule="evenodd" clip-rule="evenodd" d="M19.9996 30.5093C26.2983 30.5093 31.4045 25.583 31.4045 19.5061C31.4045 13.4292 26.2983 8.50293 19.9996 8.50293C13.7009 8.50293 8.59473 13.4292 8.59473 19.5061C8.59473 25.583 13.7009 30.5093 19.9996 30.5093Z" stroke="black" stroke-width="0.7"/><mask id="path-3-inside-1" fill="white"><path fill-rule="evenodd" clip-rule="evenodd" d="M16.5427 16.548H16.8927H18.7897H19.1397V16.898V23.355V23.705H18.7897H16.8927H16.5427V23.355V16.898V16.548ZM17.2427 17.248V23.005H18.4397V17.248H17.2427ZM20.7767 16.548H21.1267H23.0238H23.3738V16.898V23.355V23.705H23.0238H21.1267H20.7767V23.355V16.898V16.548ZM21.4767 17.248V23.005H22.6738V17.248H21.4767ZM20.0343 11.874L20.1658 11.9273L27.4048 14.8612L27.6187 14.9479L27.6233 15.1786L27.6574 16.8917L27.6646 17.2486H27.3075H25.7795V23.0056H27.2734H27.6234V23.3556V25.0686V25.4186H27.2734H12.7953H12.4453V25.0686V23.3556V23.0056H12.7953H14.2892V17.2486H12.7953H12.4453V16.8986V15.1856V14.9498L12.6638 14.8612L19.9029 11.9273L20.0343 11.874ZM13.1453 15.4214V16.5486H14.6392H14.9892V16.8986V23.3556V23.7056H14.6392H13.1453V24.7186H26.9234V23.7056H25.4295H25.0795V23.3556V16.8986V16.5486H25.4295H26.9505L26.928 15.4233L20.0343 12.6293L13.1453 15.4214Z"/></mask><path d="M16.5427 16.548V14.548C15.4381 14.548 14.5427 15.4434 14.5427 16.548H16.5427ZM19.1397 16.548H21.1397C21.1397 15.4434 20.2443 14.548 19.1397 14.548V16.548ZM19.1397 23.705V25.705C20.2443 25.705 21.1397 24.8095 21.1397 23.705H19.1397ZM16.5427 23.705H14.5427C14.5427 24.8095 15.4381 25.705 16.5427 25.705V23.705ZM17.2427 23.005H15.2427C15.2427 24.1095 16.1381 25.005 17.2427 25.005V23.005ZM17.2427 17.248V15.248C16.1381 15.248 15.2427 16.1434 15.2427 17.248H17.2427ZM18.4397 23.005V25.005C19.5443 25.005 20.4397 24.1095 20.4397 23.005H18.4397ZM18.4397 17.248H20.4397C20.4397 16.1434 19.5443 15.248 18.4397 15.248V17.248ZM20.7767 16.548V14.548C19.6722 14.548 18.7767 15.4434 18.7767 16.548H20.7767ZM23.3738 16.548H25.3738C25.3738 15.4434 24.4783 14.548 23.3738 14.548V16.548ZM23.3738 23.705V25.705C24.4783 25.705 25.3738 24.8095 25.3738 23.705H23.3738ZM20.7767 23.705H18.7767C18.7767 24.8095 19.6722 25.705 20.7767 25.705V23.705ZM21.4767 23.005H19.4767C19.4767 24.1095 20.3722 25.005 21.4767 25.005V23.005ZM21.4767 17.248V15.248C20.3722 15.248 19.4767 16.1434 19.4767 17.248H21.4767ZM22.6738 23.005V25.005C23.7783 25.005 24.6738 24.1095 24.6738 23.005H22.6738ZM22.6738 17.248H24.6738C24.6738 16.1434 23.7783 15.248 22.6738 15.248V17.248ZM20.1658 11.9273L20.917 10.0738L20.917 10.0738L20.1658 11.9273ZM20.0343 11.874L20.7856 10.0205C20.3038 9.82521 19.7649 9.82521 19.2831 10.0205L20.0343 11.874ZM27.4048 14.8612L28.1561 13.0077L28.1561 13.0077L27.4048 14.8612ZM27.6187 14.9479L29.6183 14.908C29.6024 14.1082 29.1113 13.3948 28.3699 13.0943L27.6187 14.9479ZM27.6233 15.1786L29.6229 15.1387L29.6229 15.1387L27.6233 15.1786ZM27.6574 16.8917L29.657 16.8518V16.8518L27.6574 16.8917ZM27.6646 17.2486V19.2486C28.2019 19.2486 28.7166 19.0324 29.0928 18.6487C29.4689 18.265 29.6749 17.746 29.6642 17.2088L27.6646 17.2486ZM25.7795 17.2486V15.2486C24.6749 15.2486 23.7795 16.1441 23.7795 17.2486H25.7795ZM25.7795 23.0056H23.7795C23.7795 24.1101 24.6749 25.0056 25.7795 25.0056V23.0056ZM27.6234 23.0056H29.6234C29.6234 21.901 28.7279 21.0056 27.6234 21.0056V23.0056ZM27.6234 25.4186V27.4186C28.7279 27.4186 29.6234 26.5232 29.6234 25.4186H27.6234ZM12.4453 25.4186H10.4453C10.4453 26.5232 11.3407 27.4186 12.4453 27.4186V25.4186ZM12.4453 23.0056V21.0056C11.3407 21.0056 10.4453 21.901 10.4453 23.0056H12.4453ZM14.2892 23.0056V25.0056C15.3938 25.0056 16.2892 24.1101 16.2892 23.0056H14.2892ZM14.2892 17.2486H16.2892C16.2892 16.1441 15.3938 15.2486 14.2892 15.2486V17.2486ZM12.4453 17.2486H10.4453C10.4453 18.3532 11.3407 19.2486 12.4453 19.2486V17.2486ZM12.4453 14.9498L11.6941 13.0962C10.9392 13.4022 10.4453 14.1353 10.4453 14.9498H12.4453ZM12.6638 14.8612L13.4151 16.7148H13.4151L12.6638 14.8612ZM19.9029 11.9273L19.1516 10.0738L19.1516 10.0738L19.9029 11.9273ZM13.1453 16.5486H11.1453C11.1453 17.6532 12.0407 18.5486 13.1453 18.5486V16.5486ZM13.1453 15.4214L12.3941 13.5678C11.6392 13.8738 11.1453 14.6069 11.1453 15.4214H13.1453ZM14.9892 16.5486H16.9892C16.9892 15.4441 16.0938 14.5486 14.9892 14.5486V16.5486ZM14.9892 23.7056V25.7056C16.0938 25.7056 16.9892 24.8101 16.9892 23.7056H14.9892ZM13.1453 23.7056V21.7056C12.0407 21.7056 11.1453 22.601 11.1453 23.7056H13.1453ZM13.1453 24.7186H11.1453C11.1453 25.8232 12.0407 26.7186 13.1453 26.7186V24.7186ZM26.9234 24.7186V26.7186C28.0279 26.7186 28.9234 25.8232 28.9234 24.7186H26.9234ZM26.9234 23.7056H28.9234C28.9234 22.601 28.0279 21.7056 26.9234 21.7056V23.7056ZM25.0795 23.7056H23.0795C23.0795 24.8101 23.9749 25.7056 25.0795 25.7056V23.7056ZM25.0795 16.5486V14.5486C23.9749 14.5486 23.0795 15.4441 23.0795 16.5486H25.0795ZM26.9505 16.5486V18.5486C27.4878 18.5486 28.0025 18.3324 28.3787 17.9487C28.7549 17.565 28.9608 17.046 28.9501 16.5088L26.9505 16.5486ZM26.928 15.4233L28.9276 15.3834C28.9117 14.5836 28.4207 13.8702 27.6793 13.5697L26.928 15.4233ZM20.0343 12.6293L20.7856 10.7758C20.3038 10.5805 19.7649 10.5805 19.2831 10.7758L20.0343 12.6293ZM16.8927 14.548H16.5427V18.548H16.8927V14.548ZM18.7897 14.548H16.8927V18.548H18.7897V14.548ZM19.1397 14.548H18.7897V18.548H19.1397V14.548ZM21.1397 16.898V16.548H17.1397V16.898H21.1397ZM21.1397 23.355V16.898H17.1397V23.355H21.1397ZM21.1397 23.705V23.355H17.1397V23.705H21.1397ZM18.7897 25.705H19.1397V21.705H18.7897V25.705ZM16.8927 25.705H18.7897V21.705H16.8927V25.705ZM16.5427 25.705H16.8927V21.705H16.5427V25.705ZM14.5427 23.355V23.705H18.5427V23.355H14.5427ZM14.5427 16.898V23.355H18.5427V16.898H14.5427ZM14.5427 16.548V16.898H18.5427V16.548H14.5427ZM19.2427 23.005V17.248H15.2427V23.005H19.2427ZM18.4397 21.005H17.2427V25.005H18.4397V21.005ZM16.4397 17.248V23.005H20.4397V17.248H16.4397ZM17.2427 19.248H18.4397V15.248H17.2427V19.248ZM21.1267 14.548H20.7767V18.548H21.1267V14.548ZM23.0238 14.548H21.1267V18.548H23.0238V14.548ZM23.3738 14.548H23.0238V18.548H23.3738V14.548ZM25.3738 16.898V16.548H21.3738V16.898H25.3738ZM25.3738 23.355V16.898H21.3738V23.355H25.3738ZM25.3738 23.705V23.355H21.3738V23.705H25.3738ZM23.0238 25.705H23.3738V21.705H23.0238V25.705ZM21.1267 25.705H23.0238V21.705H21.1267V25.705ZM20.7767 25.705H21.1267V21.705H20.7767V25.705ZM18.7767 23.355V23.705H22.7767V23.355H18.7767ZM18.7767 16.898V23.355H22.7767V16.898H18.7767ZM18.7767 16.548V16.898H22.7767V16.548H18.7767ZM23.4767 23.005V17.248H19.4767V23.005H23.4767ZM22.6738 21.005H21.4767V25.005H22.6738V21.005ZM20.6738 17.248V23.005H24.6738V17.248H20.6738ZM21.4767 19.248H22.6738V15.248H21.4767V19.248ZM20.917 10.0738L20.7856 10.0205L19.2831 13.7276L19.4146 13.7809L20.917 10.0738ZM28.1561 13.0077L20.917 10.0738L19.4146 13.7809L26.6536 16.7148L28.1561 13.0077ZM28.3699 13.0943L28.1561 13.0077L26.6536 16.7148L26.8675 16.8014L28.3699 13.0943ZM29.6229 15.1387L29.6183 14.908L25.6191 14.9877L25.6237 15.2185L29.6229 15.1387ZM29.657 16.8518L29.6229 15.1387L25.6237 15.2185L25.6578 16.9315L29.657 16.8518ZM29.6642 17.2088L29.657 16.8518L25.6578 16.9315L25.665 17.2885L29.6642 17.2088ZM27.3075 19.2486H27.6646V15.2486H27.3075V19.2486ZM25.7795 19.2486H27.3075V15.2486H25.7795V19.2486ZM27.7795 23.0056V17.2486H23.7795V23.0056H27.7795ZM27.2734 21.0056H25.7795V25.0056H27.2734V21.0056ZM27.6234 21.0056H27.2734V25.0056H27.6234V21.0056ZM29.6234 23.3556V23.0056H25.6234V23.3556H29.6234ZM29.6234 25.0686V23.3556H25.6234V25.0686H29.6234ZM29.6234 25.4186V25.0686H25.6234V25.4186H29.6234ZM27.2734 27.4186H27.6234V23.4186H27.2734V27.4186ZM12.7953 27.4186H27.2734V23.4186H12.7953V27.4186ZM12.4453 27.4186H12.7953V23.4186H12.4453V27.4186ZM10.4453 25.0686V25.4186H14.4453V25.0686H10.4453ZM10.4453 23.3556V25.0686H14.4453V23.3556H10.4453ZM10.4453 23.0056V23.3556H14.4453V23.0056H10.4453ZM12.7953 21.0056H12.4453V25.0056H12.7953V21.0056ZM14.2892 21.0056H12.7953V25.0056H14.2892V21.0056ZM12.2892 17.2486V23.0056H16.2892V17.2486H12.2892ZM12.7953 19.2486H14.2892V15.2486H12.7953V19.2486ZM12.4453 19.2486H12.7953V15.2486H12.4453V19.2486ZM10.4453 16.8986V17.2486H14.4453V16.8986H10.4453ZM10.4453 15.1856V16.8986H14.4453V15.1856H10.4453ZM10.4453 14.9498V15.1856H14.4453V14.9498H10.4453ZM11.9126 13.0077L11.6941 13.0962L13.1965 16.8033L13.4151 16.7148L11.9126 13.0077ZM19.1516 10.0738L11.9126 13.0077L13.4151 16.7148L20.6541 13.7809L19.1516 10.0738ZM19.2831 10.0205L19.1516 10.0738L20.6541 13.7809L20.7856 13.7276L19.2831 10.0205ZM15.1453 16.5486V15.4214H11.1453V16.5486H15.1453ZM14.6392 14.5486H13.1453V18.5486H14.6392V14.5486ZM14.9892 14.5486H14.6392V18.5486H14.9892V14.5486ZM16.9892 16.8986V16.5486H12.9892V16.8986H16.9892ZM16.9892 23.3556V16.8986H12.9892V23.3556H16.9892ZM16.9892 23.7056V23.3556H12.9892V23.7056H16.9892ZM14.6392 25.7056H14.9892V21.7056H14.6392V25.7056ZM13.1453 25.7056H14.6392V21.7056H13.1453V25.7056ZM15.1453 24.7186V23.7056H11.1453V24.7186H15.1453ZM26.9234 22.7186H13.1453V26.7186H26.9234V22.7186ZM24.9234 23.7056V24.7186H28.9234V23.7056H24.9234ZM25.4295 25.7056H26.9234V21.7056H25.4295V25.7056ZM25.0795 25.7056H25.4295V21.7056H25.0795V25.7056ZM23.0795 23.3556V23.7056H27.0795V23.3556H23.0795ZM23.0795 16.8986V23.3556H27.0795V16.8986H23.0795ZM23.0795 16.5486V16.8986H27.0795V16.5486H23.0795ZM25.4295 14.5486H25.0795V18.5486H25.4295V14.5486ZM26.9505 14.5486H25.4295V18.5486H26.9505V14.5486ZM24.9284 15.4631L24.9509 16.5885L28.9501 16.5088L28.9276 15.3834L24.9284 15.4631ZM19.2831 14.4829L26.1768 17.2768L27.6793 13.5697L20.7856 10.7758L19.2831 14.4829ZM13.8965 17.2749L20.7856 14.4829L19.2831 10.7758L12.3941 13.5678L13.8965 17.2749Z" fill="black" mask="url(#path-3-inside-1)"/></svg>