
<svg xmlns="http://www.w3.org/2000/svg"><defs><clipPath id="a"><path d="M0 0h24v24H0z"/></clipPath></defs><symbol id="medal-l2" viewBox="0 0 24 24"><g clip-path="url(#a)"><path d="M12 4a5 5 0 100 10 5 5 0 000-10zM5 9a7 7 0 1113.13 3.381l3.778 8.2a1 1 0 01-1.355 1.313l-3.355-1.677-1.49 1.49a1 1 0 01-1.658-.395l-1.749-5.318a7.008 7.008 0 01-.602 0L9.95 21.312a1 1 0 01-1.657.395l-1.49-1.49-3.356 1.677a1 1 0 01-1.355-1.312l3.778-8.2A6.972 6.972 0 015 9zm2.258 5.149L5.1 18.832l1.453-.726a1 1 0 011.154.187l.85.85 1.16-3.524a6.997 6.997 0 01-2.46-1.47zm7.026 1.47l1.158 3.524.85-.85a1 1 0 011.155-.187l1.453.726-2.157-4.683a6.997 6.997 0 01-2.46 1.47z"/></g></symbol></svg>