
<svg width="48" height="48" viewBox="0 0 48 48" fill="none" xmlns="http://www.w3.org/2000/svg"><path fill-rule="evenodd" clip-rule="evenodd" d="M13.4142 35L16.7072 31.707C17.0972 31.316 17.0972 30.684 16.7072 30.293C16.3162 29.902 15.6833 29.902 15.2933 30.293L12.0002 33.586L8.70725 30.293C8.31625 29.902 7.68325 29.902 7.29325 30.293C6.90225 30.684 6.90225 31.316 7.29325 31.707L10.5863 35L7.29325 38.293C6.90225 38.684 6.90225 39.316 7.29325 39.707C7.48825 39.902 7.74425 40 8.00025 40C8.25625 40 8.51225 39.902 8.70725 39.707L12.0002 36.414L15.2933 39.707C15.4882 39.902 15.7443 40 16.0002 40C16.2562 40 16.5122 39.902 16.7072 39.707C17.0972 39.316 17.0972 38.684 16.7072 38.293L13.4142 35Z" fill="#FFDC48"/><path fill-rule="evenodd" clip-rule="evenodd" d="M6 14H10V18C10 18.552 10.447 19 11 19C11.553 19 12 18.552 12 18V14H16C16.553 14 17 13.552 17 13C17 12.448 16.553 12 16 12H12V8C12 7.448 11.553 7 11 7C10.447 7 10 7.448 10 8V12H6C5.447 12 5 12.448 5 13C5 13.552 5.447 14 6 14Z" fill="#FFDC48"/><path fill-rule="evenodd" clip-rule="evenodd" d="M30 14H40C40.553 14 41 13.552 41 13C41 12.448 40.553 12 40 12H30C29.447 12 29 12.448 29 13C29 13.552 29.447 14 30 14Z" fill="#FFDC48"/><path fill-rule="evenodd" clip-rule="evenodd" d="M40 36H30C29.447 36 29 36.448 29 37C29 37.552 29.447 38 30 38H40C40.553 38 41 37.552 41 37C41 36.448 40.553 36 40 36Z" fill="#FFDC48"/><path fill-rule="evenodd" clip-rule="evenodd" d="M40 32H30C29.447 32 29 32.448 29 33C29 33.552 29.447 34 30 34H40C40.553 34 41 33.552 41 33C41 32.448 40.553 32 40 32Z" fill="#FFDC48"/><path fill-rule="evenodd" clip-rule="evenodd" d="M41 46H24V24H46V41C46 43.757 43.757 46 41 46ZM2 41V24H22V46H7C4.243 46 2 43.757 2 41ZM7 2H22V22H2V7C2 4.243 4.243 2 7 2ZM46 7V22H24V2H41C43.757 2 46 4.243 46 7ZM41 0H7C3.141 0 0 3.14 0 7V41C0 44.86 3.141 48 7 48H41C44.859 48 48 44.86 48 41V7C48 3.14 44.859 0 41 0Z" fill="#FFDC48"/></svg>