
<svg width="45" height="49" viewBox="0 0 45 49" fill="none" xmlns="http://www.w3.org/2000/svg"><path fill-rule="evenodd" clip-rule="evenodd" d="M2.5 47.5L2.5 1.5C2.5 0.947 2.053 0.5 1.5 0.5C0.947 0.5 0.5 0.947 0.5 1.5L0.5 47.5C0.5 48.053 0.947 48.5 1.5 48.5C2.053 48.5 2.5 48.053 2.5 47.5Z" fill="#FFDC48"/><path fill-rule="evenodd" clip-rule="evenodd" d="M42.5 9.5V47.5C42.5 48.053 42.947 48.5 43.5 48.5C44.053 48.5 44.5 48.053 44.5 47.5V9.5C44.5 8.947 44.053 8.5 43.5 8.5C42.947 8.5 42.5 8.947 42.5 9.5Z" fill="#FFDC48"/><path fill-rule="evenodd" clip-rule="evenodd" d="M38.5 47.5V15.5C38.5 14.947 38.053 14.5 37.5 14.5C36.947 14.5 36.5 14.947 36.5 15.5V47.5C36.5 48.053 36.947 48.5 37.5 48.5C38.053 48.5 38.5 48.053 38.5 47.5Z" fill="#FFDC48"/><path fill-rule="evenodd" clip-rule="evenodd" d="M32.5 47.5V9.5C32.5 8.947 32.053 8.5 31.5 8.5C30.947 8.5 30.5 8.947 30.5 9.5L30.5 47.5C30.5 48.053 30.947 48.5 31.5 48.5C32.053 48.5 32.5 48.053 32.5 47.5Z" fill="#FFDC48"/><path fill-rule="evenodd" clip-rule="evenodd" d="M26.5 47.5L26.5 1.5C26.5 0.947 26.053 0.5 25.5 0.5C24.947 0.5 24.5 0.947 24.5 1.5L24.5 47.5C24.5 48.053 24.947 48.5 25.5 48.5C26.053 48.5 26.5 48.053 26.5 47.5Z" fill="#FFDC48"/><path fill-rule="evenodd" clip-rule="evenodd" d="M20.5 47.5L20.5 9.5C20.5 8.947 20.053 8.5 19.5 8.5C18.947 8.5 18.5 8.947 18.5 9.5L18.5 47.5C18.5 48.053 18.947 48.5 19.5 48.5C20.053 48.5 20.5 48.053 20.5 47.5Z" fill="#FFDC48"/><path fill-rule="evenodd" clip-rule="evenodd" d="M14.5 47.5L14.5 15.5C14.5 14.947 14.053 14.5 13.5 14.5C12.947 14.5 12.5 14.947 12.5 15.5L12.5 47.5C12.5 48.053 12.947 48.5 13.5 48.5C14.053 48.5 14.5 48.053 14.5 47.5Z" fill="#FFDC48"/><path fill-rule="evenodd" clip-rule="evenodd" d="M8.5 47.5L8.5 9.5C8.5 8.947 8.053 8.5 7.5 8.5C6.947 8.5 6.5 8.947 6.5 9.5L6.5 47.5C6.5 48.053 6.947 48.5 7.5 48.5C8.053 48.5 8.5 48.053 8.5 47.5Z" fill="#FFDC48"/></svg>