
<svg width="48" height="48" viewBox="0 0 48 48" fill="none" xmlns="http://www.w3.org/2000/svg"><path fill-rule="evenodd" clip-rule="evenodd" d="M2 16H46V46H2V16ZM8 6V9C8 9.553 8.448 10 9 10H15C15.552 10 16 9.553 16 9V6H32V9C32 9.553 32.448 10 33 10H39C39.552 10 40 9.553 40 9V6H46V14H2V6H8ZM10 2H14V8H10V2ZM34 2H38V8H34V2ZM47 4H40V1C40 0.447 39.552 0 39 0H33C32.448 0 32 0.447 32 1V4H16V1C16 0.447 15.552 0 15 0H9C8.448 0 8 0.447 8 1V4H1C0.448 4 0 4.447 0 5V47C0 47.553 0.448 48 1 48H47C47.552 48 48 47.553 48 47V5C48 4.447 47.552 4 47 4Z" fill="#FFDC48"/><path fill-rule="evenodd" clip-rule="evenodd" d="M22.9998 38H19.9998V23C19.9998 22.596 19.7558 22.231 19.3828 22.076C19.0078 21.919 18.5788 22.006 18.2928 22.293L14.2928 26.293C13.9018 26.684 13.9018 27.316 14.2928 27.707C14.6838 28.098 15.3158 28.098 15.7068 27.707L17.9998 25.414V38H14.9998C14.4478 38 13.9998 38.447 13.9998 39C13.9998 39.553 14.4478 40 14.9998 40H22.9998C23.5518 40 23.9998 39.553 23.9998 39C23.9998 38.447 23.5518 38 22.9998 38Z" fill="#FFDC48"/><path fill-rule="evenodd" clip-rule="evenodd" d="M34 22H24C23.448 22 23 22.447 23 23V25C23 25.553 23.448 26 24 26C24.552 26 25 25.553 25 25V24H32.557L30.307 30H27C26.448 30 26 30.447 26 31C26 31.553 26.448 32 27 32H29.557L27.063 38.648C26.87 39.166 27.132 39.742 27.649 39.937C27.765 39.979 27.883 40 28 40C28.405 40 28.786 39.753 28.937 39.352L31.693 32H33C33.552 32 34 31.553 34 31C34 30.447 33.552 30 33 30H32.443L34.937 23.352C35.051 23.044 35.009 22.7 34.822 22.431C34.635 22.161 34.328 22 34 22Z" fill="#FFDC48"/></svg>