<svg fill="#000000" version="1.1" id="Capa_1" xmlns="http://www.w3.org/2000/svg" xmlns:xlink="http://www.w3.org/1999/xlink" width="64px" height="64px" viewBox="0 0 63.363 63.363" xml:space="preserve"><g id="SVGRepo_bgCarrier" stroke-width="0"></g><g id="SVGRepo_tracerCarrier" stroke-linecap="round" stroke-linejoin="round"></g><g id="SVGRepo_iconCarrier"> <g> <g> <path d="M61.56,14.512c0.006-0.089,0.012-0.179,0.012-0.271c0-0.202-0.045-0.369-0.09-0.51C60.352,5.897,47.569,0,31.682,0 C15.796,0,3.014,5.896,1.884,13.729c-0.041,0.125-0.092,0.3-0.092,0.512c0,0.09,0.006,0.177,0.012,0.264v0.119 c-0.006,0.087-0.012,0.173-0.012,0.26v33.595c0,8.346,13.129,14.884,29.89,14.884s29.89-6.538,29.89-14.884V14.885 c0-0.09-0.006-0.178-0.012-0.267V14.512z M31.682,4.016c13.437,0,25.108,4.824,25.554,10.547 C56.791,20.286,45.118,25.11,31.682,25.11c-13.438,0-25.108-4.824-25.552-10.547C6.573,8.841,18.245,4.016,31.682,4.016z M57.274,48.479c0,5.79-11.959,10.868-25.593,10.868S6.089,54.27,6.089,48.479v-3.642c5.293,4.375,14.834,7.032,25.593,7.032 s20.3-2.657,25.593-7.032V48.479z M57.274,36.987c0,5.79-11.959,10.868-25.593,10.868S6.089,42.777,6.089,36.987V33.11 c5.293,4.375,14.834,7.032,25.593,7.032s20.3-2.657,25.593-7.032V36.987z M57.274,25.26c0,5.79-11.959,10.869-25.593,10.869 S6.089,31.05,6.089,25.26v-3.167c5.294,4.374,14.836,7.033,25.593,7.033c10.759,0,20.3-2.659,25.593-7.033V25.26z"></path> <path d="M33.186,9.863c6.703,0.264,12.878,1.993,16.517,4.626c0.361,0.262,0.781,0.385,1.195,0.38 c0.611-0.008,1.211-0.295,1.598-0.828c0.646-0.895,0.445-2.146-0.448-2.792c-4.315-3.124-11.134-5.086-18.703-5.382 c-1.107-0.052-2.034,0.816-2.078,1.92C31.222,8.89,32.082,9.82,33.186,9.863z"></path> </g> </g> </g></svg>