
<svg xmlns="http://www.w3.org/2000/svg"><symbol id="cup-l2" viewBox="0 0 24 24"><path d="M6.19 2.006c.135-.004.28-.006.435-.006h10.75c.155 0 .3.002.436.006h.03c.162.005.345.01.501.028.173.02.44.07.699.247l-.568.824.568-.824a1.5 1.5 0 01.619.942c.064.322-.009.602-.058.762-.048.157-.12.338-.189.508l-.01.028a48.89 48.89 0 00-.738 1.979H21a1 1 0 011 1v.06c0 .874.001 2.42-.652 3.754a4.312 4.312 0 01-1.696 1.856c-.648.383-1.428.622-2.353.701a6.424 6.424 0 01-1.107 1.718 6.073 6.073 0 01-.527.516l2.422 4.414A1 1 0 0117.211 22H6.79a1 1 0 01-.877-1.481l2.422-4.414a6.07 6.07 0 01-.526-.516A6.424 6.424 0 016.7 13.87c-.931-.078-1.716-.316-2.367-.7a4.284 4.284 0 01-1.697-1.86C1.997 9.993 1.999 8.468 2 7.594V7.5a1 1 0 011-1h2.335a48.68 48.68 0 00-.737-1.979l-.011-.028a6.867 6.867 0 01-.189-.508 1.548 1.548 0 01-.058-.762l.972.193-.972-.193c.077-.383.298-.72.62-.942l.565.82-.565-.82c.258-.178.525-.226.698-.247.157-.019.34-.023.502-.028h.03zM5.898 8.5h-1.88c.034.67.134 1.354.417 1.939.2.412.486.757.913 1.009.212.125.476.236.805.317a6.974 6.974 0 01-.032-.665c0-.99-.085-1.852-.223-2.6zm4.15 8.638L8.48 20h7.042l-1.57-2.862a5.453 5.453 0 01-3.901 0zm7.798-5.376c.32-.08.579-.19.788-.314.426-.251.714-.598.917-1.012.285-.584.39-1.269.427-1.936h-1.877c-.139.748-.224 1.61-.224 2.6 0 .222-.01.443-.031.662zM6.625 4h-.082c.43 1.098.952 2.567 1.127 3.251.278 1.08.452 2.353.452 3.849 0 .516.08 1.021.231 1.496.2.623.52 1.188.94 1.652.26.289.552.53.862.721.567.348 1.2.531 1.845.531s1.278-.183 1.845-.531c.31-.19.601-.432.863-.721a4.51 4.51 0 00.939-1.652 4.92 4.92 0 00.231-1.496c0-1.496.174-2.77.452-3.849.176-.684.696-2.153 1.127-3.25L17.375 4H6.625z"/></symbol></svg>