
<svg xmlns="http://www.w3.org/2000/svg" xmlns:xlink="http://www.w3.org/1999/xlink"><symbol id="demo-l3" viewBox="0 0 48 48"><path fill-rule="evenodd" clip-rule="evenodd" d="M23.636 29.531 13.58 24.283l10.277-2.858a.82.82 0 0 0 .57-1.008.822.822 0 0 0-1.01-.57l-11.96 3.329-4.869-2.54 17.05-8.895 17.049 8.895-17.05 8.895ZM13 34.687c0 .902-.734 1.637-1.636 1.637a1.639 1.639 0 0 1-1.637-1.637c0-.902.734-1.636 1.637-1.636.902 0 1.636.734 1.636 1.636ZM42.833 19.91l-18.818-9.818a.826.826 0 0 0-.758 0L4.44 19.91a.82.82 0 0 0 0 1.452l6.107 3.185v6.984a3.268 3.268 0 0 0-2.455 3.156 3.276 3.276 0 0 0 3.273 3.273 3.276 3.276 0 0 0 3.272-3.273 3.268 3.268 0 0 0-2.454-3.156V25.4l11.075 5.779a.828.828 0 0 0 .758 0L35.091 25.4V28c0 2.57-3.934 7.363-11.453 7.363-1.758 0-3.562-.258-5.514-.79a.817.817 0 1 0-.43 1.58c2.095.57 4.039.847 5.944.847 8.11 0 13.09-5.242 13.09-9v-3.453l6.105-3.185a.82.82 0 0 0 0-1.452Z"/></symbol></svg>