<svg viewBox="0 0 40 40" fill="none" xmlns="http://www.w3.org/2000/svg"><path fill-rule="evenodd" clip-rule="evenodd" d="M20.6658 28.6353C25.6297 28.6353 29.6538 24.6112 29.6538 19.6472C29.6538 14.6833 25.6297 10.6592 20.6658 10.6592C15.7018 10.6592 11.6777 14.6833 11.6777 19.6472C11.6777 24.6112 15.7018 28.6353 20.6658 28.6353ZM20.666 25.972C24.1591 25.972 26.9909 23.1402 26.9909 19.6471C26.9909 16.1539 24.1591 13.3221 20.666 13.3221C17.1728 13.3221 14.3411 16.1539 14.3411 19.6471C14.3411 23.1402 17.1728 25.972 20.666 25.972ZM13.6753 19.6457C13.6753 23.5065 16.8052 26.6364 20.666 26.6364C24.5269 26.6364 27.6568 23.5065 27.6568 19.6457C27.6568 15.7848 24.5269 12.655 20.666 12.655C16.8052 12.655 13.6753 15.7848 13.6753 19.6457Z" fill="#E1E1E2"/><path fill-rule="evenodd" clip-rule="evenodd" d="M21.1355 0C23.2057 0.402399 24.6195 2.26896 24.5114 4.31643L24.6195 4.26449L26.8107 8.68961L28.084 9.72752C27.2363 8.25074 27.3494 6.34126 28.5076 4.96093C30.2046 6.38484 30.485 8.8706 29.1924 10.6311L29.8691 11.1827L29.8093 13.1285L28.9986 13.1043L29.0464 11.5492L26.1945 9.22442C24.1504 9.83923 21.9372 8.80508 21.1218 6.7869C22.5515 6.20928 24.1132 6.47919 25.25 7.36026L23.9722 4.77969C21.9753 4.14828 20.7263 2.10521 21.1355 0ZM20.6159 29.9646H23.7177V31.9622L27.0971 33.9599V39.9528H14.2554V33.9599L17.6348 31.9622L17.6514 29.9646H20.6159ZM14.1374 8.31195C14.0292 6.26438 15.4431 4.39769 17.5133 3.99528C17.9226 6.10069 16.6733 8.14395 14.6761 8.77515L12.5281 13.1128L11.7992 12.7625L14.0288 8.25977L14.1374 8.31195ZM11.4926 7.62575C9.72496 9.10897 9.49433 11.7444 10.9776 13.512C12.7452 12.0288 12.9758 9.39339 11.4926 7.62575Z" fill="#E1E1E2"/></svg>