<svg viewBox="0 0 40 40" fill="none" xmlns="http://www.w3.org/2000/svg"><path fill-rule="evenodd" clip-rule="evenodd" d="M25.622 31.1514C29.8425 26.1595 30.2236 22.0287 29.9196 18.7069C29.2432 11.3145 23.4612 5.63431 18.3424 3.27754C18.1872 3.20607 17.9961 3.1263 17.7963 3.04668C17.2762 2.83938 16.81 3.3572 16.7655 3.91537C16.6596 5.24446 15.6404 6.76825 14.4243 8.58635C12.6537 11.2335 10.4658 14.5045 10.072 18.7069C9.31113 26.8252 14.8339 31.1514 14.8339 31.1514H17.4533C17.4533 31.1514 17.4533 31.1514 17.4533 31.1514C17.5452 31.1555 20.2188 31.1534 21.8459 31.1521C22.2294 31.1518 22.5548 31.1515 22.7745 31.1514H23.0699C23.0718 31.1514 23.0733 31.1514 23.0744 31.1514C23.0744 31.1514 23.0744 31.1514 23.0744 31.1514H25.622ZM23.0744 31.1514C26.6138 26.1595 28.1084 21.6523 27.5713 17.5674C27.0197 13.3723 24.079 9.4492 18.7802 5.79257L18.4057 5.53413L18.2327 5.95497C17.5889 7.52083 16.6628 9.27166 15.4542 11.2061C13.0297 15.087 12.0755 17.4302 12.0755 20.5233C12.0755 24.0529 13.8763 27.611 17.4533 31.1514H22.7745C22.938 31.1513 23.0431 31.1513 23.0699 31.1514H23.0744ZM22.3131 30.9621C25.8584 26.0274 27.361 21.5947 26.844 17.6629C26.3359 13.7988 23.642 10.1276 18.7334 6.65451C18.0849 8.15102 17.1992 9.79738 16.0764 11.5946C13.7189 15.3681 12.8091 17.6023 12.8091 20.5231C12.8091 23.9482 14.6415 27.4274 18.3337 30.9621L18.5646 31.1512H19.4706H22.1741L22.3131 30.9621Z" fill="#E1E1E2"/><path d="M27.1099 32.6182H13.3694L10.5068 35.1785V37.0194H29.9725V35.192L27.1099 32.6182Z" fill="#E1E1E2"/><path fill-rule="evenodd" clip-rule="evenodd" d="M17.7917 30.4665C17.0073 30.0046 15.5907 27.5306 14.6062 25.4781C13.6217 23.4256 13.1405 23.4256 13.0125 21.4276C12.8844 19.4296 13.1405 18.934 13.7829 17.147C14.4253 15.36 15.5716 14.1123 15.5716 14.1123C15.5716 14.1123 16.2179 12.9437 16.913 11.805C17.6082 10.6663 17.9268 10.3865 18.3339 9.58729C18.741 8.78807 18.9845 7.73828 18.9845 7.73828C18.9845 7.73828 19.694 8.46679 20.8326 9.58729C21.9713 10.7078 22.2945 10.8246 23.1171 11.805C23.9396 12.7853 24.6293 14.1123 24.6293 14.1123L25.693 16.2107C25.693 16.2107 26.2933 17.5832 26.2933 19.3502C26.2933 21.1172 25.693 22.9036 25.693 22.9036L24.6293 25.4781C24.6293 25.4781 24.2105 26.5612 23.5863 28.0392C22.9621 29.5172 23.2381 29.4123 22.3844 30.1978C21.5308 30.9834 19.9901 31.1512 19.9901 31.1512C19.9901 31.1512 18.5761 30.9285 17.7917 30.4665Z" fill="#E1E1E2"/></svg>