<svg width="48" height="48" viewBox="0 0 48 48" fill="none" xmlns="http://www.w3.org/2000/svg">
    <circle cx="24" cy="24" r="24" fill="#FD8F00"/>
    <path d="M25.1667 17H22.8334V18.1667C22.8334 18.4761 22.9563 18.7728 23.1751 18.9916C23.3939 19.2104 23.6906 19.3333 24 19.3333C24.3095 19.3333 24.6062 19.2104 24.825 18.9916C25.0438 18.7728 25.1667 18.4761 25.1667 18.1667V17Z" fill="white"/>
    <path fill-rule="evenodd" clip-rule="evenodd" d="M17 12.3333V14.6666H18.1667V18.1666C18.1667 19.7137 18.7812 21.1974 19.8752 22.2914C20.9692 23.3853 22.4529 23.9999 24 23.9999C22.4529 23.9999 20.9692 24.6145 19.8752 25.7085C18.7812 26.8024 18.1667 28.2862 18.1667 29.8333V33.3333H17V35.6666H31V33.3333H29.8333V29.8333C29.8333 28.2862 29.2188 26.8024 28.1248 25.7085C27.0308 24.6145 25.5471 23.9999 24 23.9999C24.766 23.9999 25.5246 23.849 26.2323 23.5559C26.9401 23.2627 27.5831 22.8331 28.1248 22.2914C28.6665 21.7497 29.0961 21.1066 29.3893 20.3989C29.6824 19.6912 29.8333 18.9326 29.8333 18.1666V14.6666H31V12.3333H17ZM20.5 14.6666H27.5V18.1666C27.5 19.0948 27.1313 19.9851 26.4749 20.6415C25.8185 21.2978 24.9283 21.6666 24 21.6666C23.0717 21.6666 22.1815 21.2978 21.5251 20.6415C20.8687 19.9851 20.5 19.0948 20.5 18.1666V14.6666ZM20.5 29.8333V33.3333H27.5V29.8333C27.5 28.905 27.1313 28.0148 26.4749 27.3584C25.8185 26.702 24.9283 26.3333 24 26.3333C23.0717 26.3333 22.1815 26.702 21.5251 27.3584C20.8687 28.0148 20.5 28.905 20.5 29.8333Z" fill="white"/>
</svg>
