<svg viewBox="0 0 40 40" fill="none" xmlns="http://www.w3.org/2000/svg"><path fill-rule="evenodd" clip-rule="evenodd" d="M29.5373 29.0606C29.4947 29.0606 29.4293 29.037 29.2615 28.9542L18.1548 21.5301C18.0996 21.467 18.0303 21.3425 18.0303 21.2732V8.1243C18.0303 7.90606 18.1508 7.78788 18.3848 7.78788V7C17.7207 7 17.2424 7.46642 17.2424 8.1243V21.2732C17.2424 21.5931 17.4126 21.8972 17.66 22.1399L28.8692 29.6358C29.1961 29.7996 29.3301 29.8485 29.5373 29.8485C29.8572 29.8485 30.1652 29.6846 30.4118 29.4443L30.463 29.3821C32.1144 26.9262 33 24.1411 33 21.2732C33 13.3834 26.459 7 18.3848 7V7.78788C26.0288 7.78788 32.2121 13.823 32.2121 21.2732C32.2121 23.967 31.3833 26.5867 29.8335 28.9062C29.7272 29.0007 29.6105 29.0606 29.5373 29.0606ZM15.4122 22.2155V12.4182L14.9339 12.5246C10.3524 13.5362 7 17.5788 7 22.2155C7 27.7551 11.6012 32.2121 17.3055 32.2121C19.9283 32.2121 22.3849 31.284 24.2073 29.5964L24.5752 29.2552L16.2347 23.7393C15.7124 23.3572 15.4122 22.8048 15.4122 22.2163V22.2155Z" fill="#E1E1E2"/></svg>