<svg xmlns="http://www.w3.org/2000/svg" xmlns:xlink="http://www.w3.org/1999/xlink"><symbol id="study-l3" viewBox="0 0 48 48"><path fill-rule="evenodd" clip-rule="evenodd" d="M41 34.007c-6.684.104-13.37 1.474-16.364 3.803V13.545c0-1.316 2.538-2.753 6.546-3.73v13.888l4.09-4.091 4.092 4.091V8.694A52.98 52.98 0 0 1 41 8.643v25.364Zm-34.364 0V8.643C15.915 8.786 23 11.34 23 13.545V37.81c-2.994-2.33-9.68-3.7-16.364-3.803ZM32.818 9.455a44.636 44.636 0 0 1 4.91-.657V19.75l-2.455-2.454-2.455 2.454V9.455Zm9-2.455c-7.64 0-15.495 1.67-18 4.559C21.314 8.669 13.458 7 5.818 7A.818.818 0 0 0 5 7.818v27c0 .452.366.818.818.818 9.677 0 17.182 2.64 17.182 4.91a.818.818 0 1 0 1.636 0c0-2.27 7.506-4.91 17.182-4.91a.818.818 0 0 0 .818-.818v-27A.818.818 0 0 0 41.818 7Z"/><path fill-rule="evenodd" clip-rule="evenodd" d="M20.02 16.223c-2.759-.941-6.622-1.6-10.874-1.857-.456-.033-.841.277-.871.68-.031.402.31.75.76.777 4.096.247 7.789.873 10.4 1.764a.905.905 0 0 0 .293.05c.329 0 .639-.18.763-.472.161-.376-.049-.798-.471-.942Zm0 4.909c-2.759-.94-6.622-1.6-10.874-1.856-.456-.037-.841.277-.871.68-.031.402.31.749.76.777 4.096.246 7.789.872 10.4 1.764a.905.905 0 0 0 .293.048c.329 0 .639-.18.763-.47.161-.377-.049-.798-.471-.943Zm0 4.908c-2.759-.94-6.622-1.6-10.874-1.856-.456-.03-.841.277-.871.68-.031.402.31.75.76.777 4.096.247 7.789.873 10.4 1.765a.905.905 0 0 0 .293.049c.329 0 .639-.18.763-.471.161-.377-.049-.799-.471-.943Zm0 4.91c-2.759-.941-6.622-1.6-10.874-1.857-.456-.034-.841.278-.871.68-.031.402.31.75.76.778 4.096.246 7.789.872 10.4 1.764a.905.905 0 0 0 .293.049c.329 0 .639-.18.763-.471.161-.377-.049-.798-.471-.943Zm18.47-6.766c-4.25.256-8.112.915-10.873 1.857-.422.144-.633.566-.472.942.124.292.435.472.764.472a.905.905 0 0 0 .293-.05c2.612-.891 6.305-1.518 10.399-1.764.45-.027.792-.375.76-.777-.03-.403-.405-.71-.87-.68Zm0 4.909c-4.25.257-8.112.916-10.873 1.857-.422.145-.633.566-.472.943.124.291.435.47.764.47a.905.905 0 0 0 .293-.048c2.612-.892 6.305-1.518 10.399-1.764.45-.028.792-.376.76-.778-.03-.402-.405-.713-.87-.68Z"/></symbol></svg>