
<svg xmlns="http://www.w3.org/2000/svg" xmlns:xlink="http://www.w3.org/1999/xlink"><symbol id="support-2-l3" viewBox="0 0 48 48"><path fill-rule="evenodd" clip-rule="evenodd" d="m28.004 28.365 10.187 2.892C41.093 32.342 43 35.094 43 38.125V43h-1.625v-4.875a5.713 5.713 0 0 0-3.691-5.325l-9.765-2.77c-1.463.96-3.195 1.595-4.419 1.595-1.07 0-2.732-.57-4.333-1.604l-9.917 2.8c-2.142.806-3.625 2.946-3.625 5.304V43H4v-4.875a7.347 7.347 0 0 1 4.745-6.847l8.81-2.49c-1.518-1.377-2.737-3.208-2.958-5.394-1.144-.318-2.041-1.341-2.382-2.782-.304-1.29-.043-2.474.652-3.155l-.73-4.385c-.02-.184-.3-3.265 2.014-5.82C16.103 5.094 19.249 4 23.5 4s7.397 1.094 9.35 3.252c2.313 2.555 2.034 5.636 2.02 5.767l-.02.116-.56 2.24h.585a3.253 3.253 0 0 1 3.25 3.25c0 1.2-.66 2.237-1.63 2.8l-.011 1.422c-.363 1.82-2.028 3.09-4.047 3.09h-5.1c-.282.484-.8.813-1.4.813h-3.25a1.626 1.626 0 0 1 0-3.25h3.25c.6 0 1.118.33 1.4.813h5.1c1.023 0 2.16-.53 2.438-1.712v-.726H33.25a.813.813 0 0 1-.813-.813v-4.875c0-.02.006-.037.01-.056a.272.272 0 0 0 .01-.041.26.26 0 0 0 0-.041c0-.02 0-.039.005-.059l.795-3.18c.018-.356.064-2.632-1.63-4.488-1.633-1.79-4.368-2.697-8.127-2.697-3.773 0-6.513.914-8.145 2.717-1.834 2.027-1.612 4.49-1.61 4.514l.905 5.415-.537.269c-.36.18-.499.925-.316 1.698.178.755.698 1.637 1.578 1.637h.813v.813c0 4.225 5.13 7.312 7.312 7.312.837 0 2.415-.52 3.81-1.515l.02-.01a.066.066 0 0 0 .021-.008.713.713 0 0 1 .14-.064l.011-.004.032-.012a.55.55 0 0 1 .112-.035.545.545 0 0 1 .106-.004h.055a.794.794 0 0 1 .154.013.082.082 0 0 0 .022.002c.007 0 .014 0 .02.002Zm7.393-8.208a1.622 1.622 0 0 0 1.103-1.532c0-.896-.729-1.625-1.625-1.625h-.813v3.25h.813c.171 0 .333-.034.488-.084l.01-.003.007-.001.017-.005Zm-4.584-7.22a.813.813 0 0 1 0 1.626c-4.786 0-6.394-1.277-7.313-2.61-.919 1.333-2.527 2.61-7.313 2.61a.813.813 0 0 1 0-1.626c4.85 0 5.666-1.365 6.206-2.269.16-.269.312-.523.532-.742a.836.836 0 0 1 1.15 0c.22.219.372.473.532.742.54.904 1.357 2.27 6.206 2.27Zm-12.188 6.5a.813.813 0 0 0 .813-.798c.152-.019.405-.017.587-.015h.004l.221.001h.226c.182-.003.434-.005.587.014a.813.813 0 0 0 1.625-.014c0-.484-.146-.874-.432-1.158-.48-.476-1.145-.472-1.789-.468h-.009L20.25 17h-.208c-.648-.008-1.316-.011-1.798.467-.286.284-.431.674-.431 1.158 0 .448.364.813.812.813ZM26.542 17l.208.001h.217c.642-.005 1.31-.01 1.789.467.286.284.431.674.431 1.158a.813.813 0 0 1-1.625.014 5.508 5.508 0 0 0-.586-.015h-.005l-.221.001h-.226a5.49 5.49 0 0 0-.587.014.813.813 0 0 1-1.625-.014c0-.484.146-.874.432-1.158.482-.478 1.152-.475 1.798-.468Z"/></symbol></svg>