
<svg width="42" height="48" viewBox="0 0 42 48" fill="none" xmlns="http://www.w3.org/2000/svg"><path fill-rule="evenodd" clip-rule="evenodd" d="M37 36.476V24H40V31.515C39.837 32.003 39.081 34.01 37 36.476ZM2 31.512V24H20V45.658C5.731 41.223 2.367 32.59 2 31.512ZM5 5.476V22H2V3.899C3.035 4.539 4.027 5.055 5 5.476ZM12 6.742C13.026 6.669 14.032 6.491 15 6.199V22H12V6.742ZM10 22H7V6.202C8.005 6.495 8.999 6.68 10 6.752V22ZM20 3.451V22H17V5.407C18.073 4.887 19.086 4.241 20 3.451ZM27 24H30V42.211C29.083 42.745 28.085 43.265 27 43.761V24ZM22 24H25V44.613C24.06 44.982 23.057 45.33 22 45.658V24ZM35 38.559C34.144 39.35 33.151 40.156 32 40.949V24H35V38.559ZM30.975 6.791C33.939 6.791 36.779 5.89 40 3.899V22H22V3.453C24.483 5.596 27.643 6.791 30.975 6.791ZM41.462 1.156C41.132 0.984 40.733 1.008 40.428 1.223C36.894 3.691 33.978 4.791 30.975 4.791C27.4 4.791 24.055 3.181 21.795 0.373C21.777 0.351 21.747 0.343 21.727 0.323C21.662 0.253 21.583 0.203 21.5 0.154C21.475 0.14 21.457 0.118 21.43 0.107C21.298 0.043 21.156 0 21 0C20.845 0 20.702 0.042 20.571 0.106C20.536 0.12 20.512 0.15 20.479 0.167C20.406 0.213 20.333 0.257 20.275 0.32C20.253 0.341 20.222 0.349 20.203 0.373C17.943 3.181 14.599 4.791 11.025 4.791C8.021 4.791 5.104 3.691 1.573 1.223C1.266 1.008 0.868 0.984 0.538 1.156C0.207 1.328 0 1.669 0 2.042V31.666C0 31.756 0.012 31.845 0.036 31.932C0.16 32.384 3.287 43.075 20.73 47.963C20.818 47.989 20.909 48 21 48C21.091 48 21.182 47.989 21.27 47.963C38.713 43.075 41.84 32.384 41.964 31.932C41.988 31.845 42 31.756 42 31.666V2.042C42 1.669 41.793 1.328 41.462 1.156Z" fill="#FFDC48"/></svg>