<svg xmlns="http://www.w3.org/2000/svg" xmlns:xlink="http://www.w3.org/1999/xlink"><symbol id="twitter_filled-l2" viewBox="0 0 24 24"><path d="M7.605 21c7.924 0 12.258-6.923 12.258-12.926 0-.196-.004-.391-.012-.587A9.061 9.061 0 0 0 22 5.132a8.29 8.29 0 0 1-2.474.715 4.523 4.523 0 0 0 1.893-2.513 8.37 8.37 0 0 1-2.735 1.103 4.248 4.248 0 0 0-2.446-1.377 4.118 4.118 0 0 0-2.734.478 4.458 4.458 0 0 0-1.893 2.135 4.774 4.774 0 0 0-.27 2.91 11.74 11.74 0 0 1-4.918-1.378A12.376 12.376 0 0 1 2.46 3.836c-.55 1-.72 2.184-.472 3.31a4.555 4.555 0 0 0 1.805 2.755 4.102 4.102 0 0 1-1.951-.566v.059a4.7 4.7 0 0 0 .975 2.877A4.278 4.278 0 0 0 5.3 13.847c-.634.182-1.3.21-1.946.078a4.55 4.55 0 0 0 1.531 2.256 4.18 4.18 0 0 0 2.49.9A8.365 8.365 0 0 1 1 18.96 11.747 11.747 0 0 0 7.605 21Z"/></symbol></svg>